<svg xmlns="http://www.w3.org/2000/svg" xmlns:xlink="http://www.w3.org/1999/xlink" width="490" zoomAndPan="magnify" viewBox="0 0 367.5 239.999995" height="320" preserveAspectRatio="xMidYMid meet" version="1.0"><defs><g/><clipPath id="2192af9b9f"><path d="M 97.925781 22.472656 L 143.964844 22.472656 L 143.964844 69.105469 L 97.925781 69.105469 Z M 97.925781 22.472656 " clip-rule="nonzero"/></clipPath><clipPath id="addcb2cbf3"><path d="M 4.921875 22.472656 L 15.921875 22.472656 L 15.921875 69.105469 L 4.921875 69.105469 Z M 4.921875 22.472656 " clip-rule="nonzero"/></clipPath><clipPath id="a94599e877"><path d="M 40.675781 22.472656 L 51.824219 22.472656 L 51.824219 69.105469 L 40.675781 69.105469 Z M 40.675781 22.472656 " clip-rule="nonzero"/></clipPath><clipPath id="17535a250f"><path d="M 21.570312 32.050781 L 35.175781 32.050781 L 35.175781 62.359375 L 21.570312 62.359375 Z M 21.570312 32.050781 " clip-rule="nonzero"/></clipPath><clipPath id="0d4a0007c9"><path d="M 8.523438 55.484375 L 48.238281 55.484375 L 48.238281 69.089844 L 8.523438 69.089844 Z M 8.523438 55.484375 " clip-rule="nonzero"/></clipPath></defs><g fill="#ff3131" fill-opacity="1"><g transform="translate(-16.065884, 141.940056)"><g><path d="M 221.515625 40.640625 L 155.203125 40.640625 L 114.5625 0 L 114.5625 -46.828125 L 236.015625 -46.828125 L 236.015625 0 L 180.625 0 Z M 227.6875 93.875 L 73.921875 93.875 L 73.921875 47.0625 L 227.6875 47.0625 Z M 67.734375 93.875 C 54.742188 93.875 43.691406 89.359375 34.578125 80.328125 C 25.472656 71.296875 20.921875 60.207031 20.921875 47.0625 L 20.921875 -46.828125 L 67.734375 -46.828125 Z M 67.734375 93.875 "/></g></g></g><g fill="#ff3131" fill-opacity="1"><g transform="translate(134.363231, 141.940056)"><g><path d="M 117.890625 -94.125 L 50.15625 -94.125 L 50.15625 -140.46875 L 138.5625 -140.46875 L 225.796875 -53 L 159 -53 Z M 230.3125 0 L 0 0 L 0 -46.828125 L 230.3125 -46.828125 Z M 103.625 20.921875 L 150.453125 20.921875 L 150.453125 67.5 L 103.625 67.5 Z M 103.625 20.921875 "/></g></g></g><g clip-path="url(#2192af9b9f)"><path fill="#ff3131" d="M 97.925781 22.472656 L 143.964844 22.472656 L 143.964844 69.054688 L 97.925781 69.054688 Z M 97.925781 22.472656 " fill-opacity="1" fill-rule="nonzero"/></g><g clip-path="url(#addcb2cbf3)"><path fill="#ff3131" d="M 4.921875 22.472656 L 15.921875 22.472656 L 15.921875 69.097656 L 4.921875 69.097656 Z M 4.921875 22.472656 " fill-opacity="1" fill-rule="nonzero"/></g><g clip-path="url(#a94599e877)"><path fill="#ff3131" d="M 40.675781 22.472656 L 51.824219 22.472656 L 51.824219 69.109375 L 40.675781 69.109375 Z M 40.675781 22.472656 " fill-opacity="1" fill-rule="nonzero"/></g><g clip-path="url(#17535a250f)"><path fill="#ff3131" d="M 21.570312 32.050781 L 35.175781 32.050781 L 35.175781 62.34375 L 21.570312 62.34375 Z M 21.570312 32.050781 " fill-opacity="1" fill-rule="nonzero"/></g><g clip-path="url(#0d4a0007c9)"><path fill="#ff3131" d="M 8.523438 69.089844 L 8.523438 55.484375 L 48.226562 55.484375 L 48.226562 69.089844 Z M 8.523438 69.089844 " fill-opacity="1" fill-rule="nonzero"/></g></svg>